<svg width="606" height="364" viewBox="0 0 606 364" fill="none" xmlns="http://www.w3.org/2000/svg">
<path opacity="0.1" d="M185.415 0.661389C278.194 -4.72002 375.467 23.3089 361.169 63.938C346.872 104.567 437.613 49.5067 473.831 64.1558C499.613 74.5847 489.307 106.334 501.779 119.127C530.38 148.452 559.626 111.523 596.019 133.685C632.411 155.847 557.898 362.69 519.873 363.845L86.2019 361.22L55.0798 358.424C55.0798 358.424 -31.008 311.365 30.5743 267.961C72.2135 238.611 42.2534 217.301 37.7241 203.863C32.5246 188.436 20.3912 161.496 73.253 141.723C126.115 121.949 112.467 78.9313 111.166 70.0224C109.865 61.1136 92.6462 6.04072 185.415 0.661389Z" fill="#9BC1F9"/>
<path d="M80.0148 269.701C70.0392 254.838 67.6241 236.543 67.3585 223.812C67.066 209.993 69.1677 199.562 69.1885 199.458L68.4976 199.236C68.4768 199.34 66.3564 209.848 66.6489 223.759C66.9187 236.616 69.3607 255.095 79.4608 270.144L80.0148 269.701Z" fill="#3C8F7C"/>
<path d="M71.4147 196.849C71.2944 199.983 70.0475 202.656 68.1718 204.332C66.4435 202.214 65.4123 199.267 65.5327 196.132C65.653 192.996 66.9 190.325 68.7756 188.652C70.5039 190.767 71.5351 193.716 71.4147 196.849Z" fill="#3C8F7C"/>
<path d="M65.2962 204.292C66.9933 206.94 67.5992 210.001 67.1822 212.693C64.7111 212.179 62.2752 210.495 60.5781 207.849C58.8809 205.203 58.2771 202.14 58.6941 199.448C61.1652 199.962 63.601 201.646 65.2962 204.292Z" fill="#3C8F7C"/>
<path d="M61.9889 212.913C64.4624 214.466 66.2681 216.884 67.0535 219.696C64.7173 220.476 61.9329 220.159 59.3871 218.578C56.9128 217.026 55.1068 214.608 54.3225 211.795C56.6587 211.017 59.4431 211.335 61.9889 212.913Z" fill="#3C8F7C"/>
<path d="M67.1291 230.889C68.096 229.488 66.6846 226.839 63.9766 224.972C61.2686 223.105 58.2896 222.727 57.3227 224.128C56.3557 225.528 57.7671 228.178 60.4751 230.045C63.1831 231.912 66.1622 232.29 67.1291 230.889Z" fill="#3C8F7C"/>
<path d="M71.1533 210.395C72.162 209.78 73.2974 209.401 74.4738 209.289C75.6502 209.176 76.8368 209.332 77.9442 209.744C77.7131 210.948 77.2329 212.09 76.5344 213.097C75.8359 214.105 74.9345 214.955 73.8879 215.594C72.8792 216.21 71.7438 216.588 70.5675 216.701C69.3911 216.814 68.2044 216.658 67.0971 216.245C67.3281 215.042 67.8083 213.899 68.5068 212.892C69.2053 211.885 70.1068 211.034 71.1533 210.395Z" fill="#3C8F7C"/>
<path d="M71.201 218.57C72.2097 217.955 73.3451 217.576 74.5215 217.463C75.6979 217.351 76.8845 217.506 77.9919 217.919C77.7611 219.123 77.281 220.265 76.5824 221.272C75.8839 222.279 74.9823 223.129 73.9356 223.767C72.927 224.383 71.7913 224.762 70.6145 224.876C69.4376 224.989 68.2505 224.833 67.1427 224.42C67.3746 223.217 67.8554 222.074 68.5542 221.067C69.253 220.06 70.1545 219.209 71.201 218.57Z" fill="#3C8F7C"/>
<path d="M69.7341 342.699C48.8222 335.088 34.1948 316.937 25.6072 303.049C16.283 287.975 11.8637 274.526 11.8201 274.391L10.8969 274.759C10.9404 274.893 15.3909 288.445 24.7731 303.621C33.4438 317.646 48.2184 335.972 69.3939 343.686L69.7341 342.699Z" fill="#96D9C9"/>
<path d="M12.6376 269.508C14.4727 272.944 14.9083 276.956 13.8535 280.706C10.5338 279.895 7.44856 277.546 5.54389 273.96C3.70859 270.524 3.27297 266.512 4.32805 262.762C7.65189 263.571 10.733 265.922 12.6376 269.508Z" fill="#96D9C9"/>
<path d="M10.5898 283.217C12.3184 283.893 13.8869 284.922 15.1949 286.238C16.5029 287.554 17.5215 289.129 18.1857 290.861C16.5595 291.701 14.7717 292.18 12.9436 292.267C11.1156 292.354 9.29021 292.046 7.59171 291.365C5.86371 290.689 4.29591 289.66 2.98865 288.344C1.68139 287.028 0.663455 285.453 0 283.721C1.62556 282.883 3.41271 282.404 5.23999 282.317C7.06727 282.23 8.89187 282.537 10.5898 283.217Z" fill="#96D9C9"/>
<path d="M13.4427 304.309C18.8165 303.544 22.9002 301.011 22.564 298.653C22.2277 296.294 17.5989 295.003 12.2251 295.768C6.85135 296.534 2.76763 299.066 3.10388 301.425C3.44012 303.783 8.06899 305.074 13.4427 304.309Z" fill="#96D9C9"/>
<path d="M20.8145 316.297C26.1883 315.532 30.272 312.999 29.9358 310.641C29.5995 308.282 24.9707 306.991 19.5969 307.756C14.2232 308.522 10.1394 311.054 10.4757 313.413C10.8119 315.771 15.4408 317.062 20.8145 316.297Z" fill="#96D9C9"/>
<path d="M19.2542 289.053C19.4617 285.269 21.0468 281.851 23.3706 279.514C25.4454 281.766 26.6363 285.134 26.4247 288.92C26.2131 292.707 24.6342 296.123 22.3104 298.46C20.2418 296.201 19.0426 292.834 19.2542 289.053Z" fill="#96D9C9"/>
<path d="M26.9538 301.456C27.1094 297.67 28.6385 294.223 30.9291 291.849C33.0309 294.061 34.2799 297.404 34.1243 301.193C33.9687 304.982 32.4375 308.426 30.149 310.799C28.0472 308.586 26.7961 305.243 26.9538 301.456Z" fill="#96D9C9"/>
<path d="M32.4167 320.118C33.1019 319.747 33.8623 319.535 34.641 319.499C35.4197 319.463 36.1964 319.604 36.9128 319.911C36.7032 320.697 36.3347 321.431 35.8301 322.069C35.3256 322.707 34.6956 323.235 33.9791 323.621C33.2938 323.992 32.5334 324.203 31.7548 324.239C30.9762 324.275 30.1995 324.135 29.483 323.828C29.6922 323.042 30.0605 322.307 30.5651 321.669C31.0697 321.031 31.6999 320.503 32.4167 320.118Z" fill="#96D9C9"/>
<path d="M119.882 322.571C119.882 322.571 136.138 286.695 130.704 278.69C123.194 267.629 113.853 301.574 113.398 298.598C109.097 270.42 109.996 234.882 89.8784 229.497C78.4421 226.434 90.6357 256.041 89.2145 263.664C87.7933 271.287 68.7694 244.061 57.055 229.654C45.3407 215.248 38.1639 223.194 44.9548 240.674C51.5236 257.575 75.3154 277.38 69.9894 279.074C64.6633 280.768 34.7986 257.225 30.2984 265.901C24.7794 276.54 70.784 295.32 66.1697 297.439C61.5553 299.559 39.6371 289.596 39.6371 298.061C39.6371 306.526 69.9292 308.654 69.1325 312.318C67.8585 318.251 48.8347 303.061 47.347 311.294C45.8283 319.713 73.17 320.352 72.2156 326.938C71.6679 330.723 64.7795 326.762 63.5347 331.965C60.6942 343.831 103.786 360.457 103.786 360.457L119.882 322.571Z" fill="#3C8F7C"/>
<path d="M149.27 330.472C155.812 333.535 154.042 341.142 154.042 341.142C154.042 341.142 171.777 327.299 178.408 335.379C185.039 343.458 181.554 359.293 173.777 361.867C166.001 364.441 98.3623 362.638 98.3623 362.638C98.3623 362.638 143.386 327.716 149.27 330.472Z" fill="#96D9C9"/>
<path d="M102.925 349.986L103.547 349.451C89.3369 332.15 83.2681 310.465 80.6808 295.312C77.8715 278.875 78.44 266.374 78.4463 266.25L77.5831 266.094C77.5831 266.221 77.0043 278.805 79.8281 295.335C82.4403 310.62 88.563 332.498 102.925 349.986Z" fill="#50BFA5"/>
<path d="M80.3509 263.502C80.7659 267.235 79.8053 270.464 77.9379 272.536C75.4207 269.896 73.8334 266.507 73.4169 262.884C73.002 259.152 73.9626 255.925 75.8299 253.851C78.3472 256.491 79.9345 259.879 80.3509 263.502Z" fill="#50BFA5"/>
<path d="M74.8071 272.199C77.2429 275.281 78.4919 278.9 78.4898 282.12C75.5374 281.606 72.421 279.702 69.9831 276.619C67.5452 273.535 66.2983 269.918 66.3004 266.698C69.2528 267.212 72.3712 269.118 74.8071 272.199Z" fill="#50BFA5"/>
<path d="M72.5206 282.589C75.6825 284.365 78.1684 287.135 79.5915 290.469C77.0271 291.49 73.7489 291.224 70.5246 289.447C67.3629 287.675 64.8761 284.908 63.4516 281.577C66.0161 280.551 69.2943 280.812 72.5206 282.589Z" fill="#50BFA5"/>
<path d="M78.2865 299.693C79.6587 300.344 80.7755 301.433 81.4609 302.787C80.4235 303.304 79.0604 303.3 77.6661 302.655C76.2939 302.004 75.1772 300.915 74.4917 299.561C75.5249 299.044 76.9026 299.049 78.2865 299.693Z" fill="#50BFA5"/>
<path d="M80.0355 306.072C81.4089 306.723 82.5264 307.813 83.2121 309.168C82.1747 309.683 80.8094 309.679 79.4172 309.034C78.0442 308.383 76.9267 307.295 76.2407 305.94C77.274 305.421 78.6433 305.436 80.0355 306.072Z" fill="#50BFA5"/>
<path d="M82.6726 279.228C84.9549 277.593 87.7829 277.309 90.4137 278.191C90.2892 281.038 89.0423 283.68 86.7662 285.312C84.4902 286.944 81.6581 287.232 79.0251 286.349C79.1517 283.502 80.3966 280.86 82.6726 279.228Z" fill="#50BFA5"/>
<path d="M84.1893 288.953C86.4716 287.319 89.2975 287.035 91.9283 287.917C91.8038 290.764 90.5569 293.406 88.2808 295.038C86.0048 296.67 83.1727 296.956 80.5397 296.075C80.6663 293.225 81.9112 290.586 84.1893 288.953Z" fill="#50BFA5"/>
<path d="M85.1831 302.997C86.6666 301.935 88.5028 301.753 90.2228 302.315C90.1419 304.169 89.3307 305.888 87.8472 306.952C86.3637 308.015 84.5275 308.196 82.8096 307.634C82.8905 305.778 83.7017 304.061 85.1831 302.997Z" fill="#50BFA5"/>
<path d="M113.641 362.97C113.641 362.97 92.8662 336.312 84.179 332.227C74.9253 327.872 82.9486 342.956 82.9486 342.956C82.9486 342.956 63.1633 323.529 58.5157 328.38C53.8681 333.23 58.8311 337.77 58.8311 337.77C58.8311 337.77 42.2617 334.695 39.8466 340.897C36.1348 350.436 63.3853 355.171 63.3853 355.171C63.3853 355.171 50.3451 352.303 52.9469 358.209C56.8849 367.109 113.641 362.97 113.641 362.97Z" fill="#50BFA5"/>
<path d="M39.8508 340.897C42.2658 334.694 58.8352 337.77 58.8352 337.77C58.8352 337.77 53.8723 333.224 58.5198 328.38C63.1674 323.535 78.6558 334.985 78.6558 334.985C78.6558 334.985 76.2553 324.456 87.8887 332.739C96.2004 338.653 112.239 360.72 112.239 360.72L39.8508 340.897Z" fill="#96D9C9"/>
<path d="M98.3664 362.57C98.3664 362.57 131.468 364.909 137.916 358.984C144.365 353.06 137.966 342.328 137.966 342.328C137.966 342.328 149.326 333.353 149.149 327.492C148.973 321.632 141.57 324.606 141.57 324.606C141.57 324.606 154.114 308.463 151.139 305.392C145.597 299.675 131.094 316.454 131.094 316.454C131.094 316.454 135.4 308.472 130.858 307.205C124.011 305.293 118.975 324.979 118.975 324.979C118.975 324.979 120.251 317.204 115.533 318.237C107.064 320.089 98.3664 362.57 98.3664 362.57Z" fill="#50BFA5"/>
<path d="M125.856 362.935H123.084L133.41 309.312L135.713 309.749L125.856 362.935Z" fill="#0E2E35"/>
<path d="M435.622 271.353L438.294 264.877C440.369 260.107 445.674 257.839 450.145 259.796C461.414 264.73 466.312 278.46 461.088 290.463L457.268 299.241C455.594 303.086 456.177 307.315 458.434 310.299C460.482 313.007 460.818 316.773 459.397 320.045L457.382 324.674C456.327 327.108 454.756 329.284 452.779 331.053C450.801 332.823 448.464 334.143 445.927 334.923C444.39 335.405 442.975 336.216 441.782 337.298C440.588 338.379 439.643 339.707 439.012 341.189L436.159 347.743C433.007 354.984 424.941 358.443 418.141 355.467L414.266 353.754C407.467 350.779 404.514 342.494 407.664 335.25C412.761 326.59 412.355 320.126 410.548 315.742C409.219 312.487 408.557 308.999 408.6 305.484C408.642 301.969 409.389 298.498 410.797 295.276L411.199 294.351C412.668 290.963 414.843 287.926 417.578 285.443C420.314 282.96 423.547 281.089 427.063 279.953C430.14 278.975 433.354 276.573 435.622 271.353Z" fill="#50BFA5"/>
<path d="M387.057 362.338C392.524 355.227 422.909 317.463 442.454 311.116C464.032 304.108 443.699 331.938 443.699 331.938C443.699 331.938 481.983 289.953 496.034 293.738C508.912 297.207 496.034 323.233 496.034 323.233C496.034 323.233 510.539 308.82 528.129 308.82C545.248 308.82 516.242 361.218 514.674 363.955L387.057 362.338Z" fill="#96D9C9"/>
<path d="M502.405 281.521C486.761 306.023 475.367 334.454 468.839 363.368L467.289 363.35C473.79 335.041 485.587 306.388 501.202 281.913C504.831 276.225 508.75 269.471 515.547 267.258C515.678 267.216 515.728 267.415 515.603 267.465C509.395 269.809 505.8 276.196 502.405 281.521Z" fill="#3C8F7C"/>
<path d="M472.396 363.42C490.53 338.676 512.152 316.686 536.59 298.134C536.841 297.943 537.181 298.385 536.928 298.58C512.937 317.057 491.74 338.9 473.995 363.433L472.396 363.42Z" fill="#3C8F7C"/>
<path d="M503.835 266.327C504.237 266.922 505.779 268.471 506.231 270.505C506.839 272.436 506.36 274.86 506.308 274.767C506.192 274.817 508.09 273.205 508.684 270.642C509.453 268.185 508.916 264.778 507.96 263.647C506.3 261.095 503.424 260.835 502.866 262.074C502.271 263.303 503.024 264.977 503.835 266.327Z" fill="#3C8F7C"/>
<path d="M507.576 288.197C506.993 287.782 505.478 286.206 503.459 285.708C501.546 285.061 499.127 285.501 499.21 285.548C499.16 285.665 500.804 283.79 503.37 283.247C505.835 282.525 509.223 283.13 510.329 284.111C512.842 285.816 513.043 288.713 511.798 289.25C510.559 289.824 508.908 289.036 507.576 288.197Z" fill="#3C8F7C"/>
<path d="M501.928 297.781C501.345 297.367 499.831 295.791 497.812 295.293C495.899 294.644 493.48 295.086 493.563 295.131C493.513 295.247 495.156 293.375 497.712 292.829C500.177 292.108 503.565 292.713 504.671 293.694C507.184 295.399 507.385 298.296 506.14 298.833C504.914 299.409 503.26 298.621 501.928 297.781Z" fill="#3C8F7C"/>
<path d="M522.073 320.014C521.489 319.6 519.975 318.024 517.954 317.526C516.043 316.877 513.624 317.318 513.707 317.364C513.657 317.48 515.3 315.608 517.857 315.062C520.321 314.341 523.71 314.946 524.815 315.927C527.328 317.632 527.529 320.529 526.284 321.066C525.06 321.642 523.4 320.854 522.073 320.014Z" fill="#3C8F7C"/>
<path d="M532.364 310.923C531.78 310.508 530.266 308.93 528.247 308.434C526.334 307.785 523.915 308.227 523.998 308.273C523.948 308.389 525.591 306.516 528.148 305.971C530.612 305.249 534.001 305.857 535.106 306.836C537.619 308.542 537.82 311.439 536.575 311.976C535.349 312.549 533.696 311.761 532.364 310.923Z" fill="#3C8F7C"/>
<path d="M495.932 277.173C496.424 277.695 498.189 278.981 498.957 280.92C499.86 282.73 499.766 285.192 499.702 285.117C499.594 285.183 501.217 283.292 501.401 280.669C501.773 278.12 500.706 274.84 499.584 273.875C497.552 271.615 494.664 271.816 494.308 273.127C493.913 274.433 494.92 275.968 495.932 277.173Z" fill="#3C8F7C"/>
<path d="M487.629 288.043C488.328 288.414 490.768 289.08 491.986 290.922C493.376 292.552 493.552 295.341 493.461 295.277C493.33 295.397 495.2 292.581 495.121 289.578C495.295 286.573 493.515 283.371 491.946 282.78C489.042 281.121 485.33 282.602 485.025 284.219C484.682 285.857 486.172 287.133 487.629 288.043Z" fill="#3C8F7C"/>
<path d="M478.888 304.507C479.639 304.756 482.16 305.009 483.676 306.607C485.32 307.98 485.959 310.701 485.861 310.66C485.753 310.801 487.127 307.715 486.542 304.764C486.208 301.771 483.917 298.916 482.272 298.596C479.135 297.462 475.719 299.538 475.688 301.182C475.618 302.85 477.3 303.856 478.888 304.507Z" fill="#3C8F7C"/>
<path d="M504.752 315.977C505.298 316.319 507.242 317.014 508.142 318.567C509.18 319.973 509.165 322.252 509.092 322.2C508.978 322.289 510.661 320.112 510.767 317.661C511.078 315.226 509.812 312.52 508.57 311.947C506.302 310.442 503.196 311.425 502.856 312.723C502.478 314.029 503.619 315.153 504.752 315.977Z" fill="#3C8F7C"/>
<path d="M518.213 270.182C517.888 269.91 517.06 268.913 515.888 268.523C514.784 268.054 513.333 268.206 513.381 268.241C513.346 268.307 514.4 267.27 515.941 267.061C517.431 266.744 519.408 267.25 520.021 267.878C521.433 268.998 521.425 270.721 520.666 270.989C519.906 271.256 518.967 270.736 518.213 270.182Z" fill="#3C8F7C"/>
<path d="M515.08 263.185C515.095 263.612 515.379 264.877 514.964 266.043C514.659 267.204 513.655 268.264 513.655 268.204C513.582 268.191 515.043 267.996 516.145 266.891C517.305 265.902 518.112 264.021 517.989 263.158C517.969 261.354 516.603 260.307 515.931 260.75C515.259 261.194 515.101 262.25 515.08 263.185Z" fill="#3C8F7C"/>
<path d="M539.775 301.659C539.449 301.388 538.621 300.39 537.449 300C536.345 299.534 534.895 299.683 534.942 299.718C534.907 299.785 535.961 298.75 537.503 298.541C538.993 298.221 540.97 298.727 541.582 299.358C542.995 300.475 542.987 302.199 542.227 302.468C541.468 302.738 540.526 302.213 539.775 301.659Z" fill="#3C8F7C"/>
<path d="M535.992 294.602C536.042 295.017 536.428 296.261 536.109 297.46C535.901 298.642 534.986 299.78 534.982 299.722C534.909 299.722 536.349 299.391 537.362 298.209C538.439 297.126 539.088 295.187 538.895 294.329C538.727 292.533 537.281 291.602 536.648 292.099C536.015 292.597 535.936 293.669 535.992 294.602Z" fill="#3C8F7C"/>
<path d="M518.965 335.238C519.068 335.895 519.751 337.803 519.33 339.688C519.081 341.554 517.726 343.381 517.718 343.29C517.599 343.29 519.826 342.687 521.332 340.775C522.942 339.018 523.822 335.949 523.475 334.624C523.097 331.831 520.778 330.476 519.826 331.289C518.873 332.102 518.817 333.784 518.965 335.238Z" fill="#3C8F7C"/>
<path d="M504.893 340.29C504.997 340.947 505.679 342.855 505.258 344.74C505.009 346.606 503.655 348.435 503.644 348.344C503.528 348.344 505.754 347.739 507.26 345.827C508.87 344.07 509.761 341.001 509.404 339.676C509.024 336.884 506.706 335.528 505.754 336.341C504.802 337.154 504.746 338.838 504.893 340.29Z" fill="#3C8F7C"/>
<path d="M490.594 346.681C490.699 347.338 491.382 349.246 490.961 351.131C490.71 352.997 489.357 354.826 489.347 354.735C489.23 354.735 491.457 354.132 492.963 352.218C494.573 350.461 495.453 347.392 495.106 346.067C494.727 343.276 492.409 341.919 491.455 342.732C490.5 343.545 490.448 345.229 490.594 346.681Z" fill="#3C8F7C"/>
<path d="M523.164 348.423C522.876 347.879 522.317 346.092 520.956 344.939C519.738 343.709 517.72 343.114 517.763 343.186C517.682 343.255 519.655 342.45 521.828 343.016C523.992 343.41 526.357 345.173 526.832 346.349C528.106 348.63 527.156 350.911 526.002 350.851C524.849 350.791 523.865 349.576 523.164 348.423Z" fill="#3C8F7C"/>
<path d="M508.528 353.618C508.24 353.076 507.68 351.287 506.321 350.134C505.103 348.904 503.084 348.309 503.128 348.381C503.045 348.452 505.018 347.645 507.192 348.213C509.356 348.605 511.721 350.37 512.194 351.546C513.468 353.815 512.518 356.108 511.364 356.046C510.194 356.011 509.227 354.771 508.528 353.618Z" fill="#3C8F7C"/>
<path d="M534.312 343.074C534.059 342.772 533.472 341.722 532.467 341.179C531.54 340.567 530.185 340.461 530.231 340.501C530.187 340.555 531.32 339.79 532.76 339.856C534.171 339.817 535.889 340.611 536.341 341.287C537.441 342.544 537.146 344.111 536.409 344.223C535.673 344.335 534.903 343.705 534.312 343.074Z" fill="#3C8F7C"/>
<path d="M532.623 336.173C532.565 336.563 532.623 337.766 532.038 338.757C531.567 339.763 530.475 340.561 530.486 340.507C530.422 340.482 531.787 340.542 532.976 339.727C534.198 339.022 535.248 337.446 535.281 336.631C535.561 334.972 534.492 333.801 533.806 334.093C533.119 334.385 532.797 335.325 532.623 336.173Z" fill="#3C8F7C"/>
<path d="M458.084 152.488C458.942 152.593 459.673 151.637 459.459 150.829C459.115 149.539 458.791 148.243 458.459 146.949C457.729 144.089 457.61 144 457.812 143.759C458.291 143.183 459.445 143.852 459.847 144.141C460.739 144.775 461.476 145.642 462.492 146.092C464.476 146.965 466.435 145.837 466.121 143.57C465.827 141.497 465.41 139.423 464.982 137.349C467.057 138.457 469.101 139.63 471.188 140.705C471.341 140.792 471.516 140.835 471.692 140.827C471.868 140.82 472.039 140.762 472.183 140.661C472.328 140.56 472.441 140.42 472.509 140.258C472.577 140.095 472.598 139.916 472.568 139.742C472.346 137.917 471.69 132.517 471.474 130.736C471.418 130.276 470.904 128.16 471.369 127.924C471.783 127.717 473.178 128.581 473.51 128.735C475.348 129.585 475.999 129.861 482.048 132.49C482.767 132.803 483.697 131.97 483.436 131.217C480.879 123.799 481.809 123.472 480.504 122.151C480.211 121.854 479.809 121.993 479.647 122.337C479.232 123.214 479.197 123.453 479.977 126.86C480.18 127.742 480.404 128.617 480.649 129.485C473.375 126.153 471.62 125.131 470.084 126.537C469.02 127.507 469.269 127.93 470.539 138.15C468.424 136.874 466.244 135.736 464.071 134.545C463.896 134.44 463.693 134.387 463.488 134.395C463.283 134.402 463.085 134.469 462.917 134.587C462.749 134.705 462.619 134.869 462.543 135.059C462.467 135.25 462.448 135.458 462.488 135.659C463.582 143.087 463.912 143.237 463.833 143.917C463.833 143.935 464.2 144.145 463.625 143.917C462.644 143.527 461.223 141.507 459.225 141.157C457.465 140.848 455.434 141.754 455.268 143.72C455.171 144.862 455.459 145.362 456.409 149.557C454.245 149.358 452.065 149.417 449.915 149.732C448.936 149.871 448.309 150.088 447.537 150.712C446.915 151.225 447.143 152.425 447.952 152.618C450.241 153.16 451.737 151.708 458.084 152.488Z" fill="#F7CC7F"/>
<path d="M492.61 182.404C492.884 180.413 493.335 178.452 493.957 176.541C494.079 176.166 494.222 175.44 494.677 175.318C495.768 175.021 496.677 177.014 499.988 178.843C501.426 179.635 504.329 181.402 505.619 179.538C506.279 178.584 506.449 177.18 506.777 176.081C507.022 175.251 507.3 174.422 507.559 173.592C512.829 176.927 512.402 177.165 513.875 176.985C514.073 176.946 514.248 176.83 514.361 176.663C514.474 176.496 514.517 176.292 514.481 176.093C514.085 174.689 514.136 175.073 507.532 170.801C506.931 170.411 505.982 170.627 505.765 171.377C505.433 172.508 504.208 177.702 503.957 178.316C503.91 178.258 503.619 178.229 503.559 178.208C501.183 177.41 499.422 175.94 497.509 174.393C495.942 173.126 493.521 172.389 492.282 174.509C491.61 175.658 490.973 178.254 490.571 180.278C487.403 178.115 484.247 175.923 481.066 173.789C480.444 173.375 479.305 173.582 479.116 174.424C478.591 176.755 477.987 179.061 477.367 181.365C475.506 180.07 473.856 178.497 472.474 176.701C471.454 175.376 469.256 176.701 472.059 179.872C473.577 181.695 475.389 183.251 477.421 184.477C478.099 184.892 479.122 184.685 479.377 183.841C480.058 181.578 480.637 179.278 481.17 176.979C484.355 179.094 487.56 181.176 490.743 183.291C491.527 183.814 492.486 183.291 492.61 182.404Z" fill="#F47458"/>
<path d="M491.071 231.873C490.876 232.574 491.189 233.151 491.811 233.466C494.855 235.003 497.951 236.247 501.345 236.659C503.111 236.867 503.256 234.194 501.553 233.883C498.895 233.393 496.191 232.75 493.689 231.643C494.319 229.732 495.154 227.895 496.179 226.164C496.571 225.507 496.386 224.412 495.544 224.188C493.451 223.626 485.458 221.745 485.365 221.809C485.4 221.746 485.419 221.675 485.421 221.602C485.517 220.721 486.975 218.077 487.299 216.751C487.66 215.275 485.882 214.17 484.743 213.709C482.433 212.772 479.286 213.709 477.244 212.092C475.282 210.54 478.827 207.793 477.844 204.529C477.087 202.013 474.524 201.939 470.543 201.545C469.567 201.447 468.615 201.364 467.881 202.131C467.778 202.227 467.708 202.354 467.681 202.492C467.654 202.63 467.672 202.773 467.731 202.901C468.549 204.288 470.047 204.218 473.651 204.672C474.109 204.73 474.925 204.69 475.217 205.13C476.192 206.582 473.414 208.983 474.207 211.932C474.829 214.232 477.111 215.3 479.217 215.665C480.865 215.947 483.106 215.607 484.552 216.66C484.052 218.016 483.514 219.373 483.116 220.756C482.687 222.27 483.143 223.547 484.624 224.124C486.261 224.762 488.077 225.051 489.774 225.472C490.917 225.756 492.056 226.044 493.204 226.318C492.318 228.098 491.604 229.958 491.071 231.873Z" fill="#3CB4C5"/>
<path d="M424.64 116.616C417.847 106.577 411.295 111.846 412.971 115.67C413.689 117.308 415.625 118.001 417.058 116.815C417.716 116.269 417.38 114.948 416.455 114.961C415.691 114.973 415.762 114.131 416.596 114.042C417.72 113.926 418.718 115.021 419.444 115.734C421.142 117.393 423.364 119.534 422.955 122.163C422.333 126.078 417.328 128.923 412.305 125.039C405.062 119.44 409.44 106.168 418.783 106.527C423.866 106.722 428.345 110.239 430.086 114.984C430.426 115.911 431.702 115.324 431.624 114.471C431.026 108.018 424.316 103.63 418.15 103.922C411.826 104.221 407.176 109.407 406.294 115.494C405.369 121.877 409.087 128.523 415.666 129.77C422.889 131.132 429.397 123.635 424.64 116.616Z" fill="#3CB4C5"/>
<path d="M480.944 251.06C479.782 249.608 476.946 248.069 475.367 249.772C474.632 250.562 474.547 251.783 475.522 252.468C476.497 253.152 477.626 252.854 478.151 254.071C478.601 255.108 477.823 256.192 476.96 256.752C474.335 258.461 470.402 256.526 468.453 254.566C465.366 251.456 466.294 245.985 471.024 244.643C472.505 244.229 474.001 244.484 475.506 244.573C476.336 244.623 477.078 243.505 476.379 242.846C473.696 240.311 469.188 241.199 466.518 243.327C463.715 245.56 462.596 249.598 463.563 253.013C464.642 256.827 468.269 259.649 471.974 260.703C479.674 262.891 484.705 255.792 480.944 251.06Z" fill="#3C8F7C"/>
<path d="M127.814 184.967C128.022 180.029 127.295 175.15 125.1 170.552C123.212 166.595 118.542 164.35 114.282 164.345C100.757 164.327 99.0366 182.327 90.422 189.27C87.7912 191.391 84.8512 193.119 82.3614 195.408C73.168 203.857 77.3176 219.495 85.7537 226.9C91.613 232.041 100.817 234.961 108.037 230.942C111.805 228.846 114.676 225.36 116.704 221.54C119.596 216.119 121.461 209.862 123.519 204.085C125.708 197.936 127.544 191.532 127.814 184.967Z" fill="#0E2E35"/>
<path d="M98.8063 187.005C98.8063 187.005 88.8722 169.148 86.4467 165.351C84.0213 161.554 77.7325 146.48 77.5084 145.876C77.2844 145.273 81.8448 138.143 80.8281 137.899C79.8115 137.654 78.6911 141.663 77.6039 141.194C76.5167 140.725 73.3443 131.066 72.726 131.545C71.5683 132.441 74.4357 137.53 73.8195 137.851C73.2032 138.172 71.3297 132.252 70.118 132.424C68.9063 132.596 72.4252 137.851 72.0849 138.316C71.7446 138.78 68.093 133.83 67.4332 134.886C67.0743 135.458 70.7923 139.205 70.0765 139.556C69.3607 139.906 66.0576 137.482 65.707 138.185C65.3563 138.888 68.7652 139.844 69.784 141.71C70.8027 143.577 72.5393 144.406 73.2593 147.886C73.9792 151.366 75.0581 163.97 78.7492 170.256C82.4403 176.541 90.5611 190.458 90.5611 190.458L98.8063 187.005Z" fill="#F79C8D"/>
<path d="M151.376 252.723L135.929 240.902C135.929 240.902 134.375 229.882 132.3 220.098C129.692 220.837 127.341 222.888 124.731 223.603L128.654 245.504L148.898 255.985L154.616 263.355L155.917 255.788L151.376 252.723Z" fill="#F48C7F"/>
<path d="M130.018 208.886C125.791 196.028 121.067 196.58 121.067 196.58L124.721 223.603C127.331 222.888 130.738 221.295 133.333 220.557C132.476 216.494 131.055 212.052 130.018 208.886Z" fill="#F7CC7F"/>
<path d="M85.5317 343.989C85.5317 343.989 84.5794 350.625 82.9403 352.776C82.3905 353.495 81.3842 354.406 80.7244 355.706C79.6974 357.732 80.2659 360.745 81.0232 362.404C81.4132 363.256 80.9962 363.254 81.8821 363.53C84.5047 364.343 87.2932 362.972 88.4095 360.449C89.1843 358.657 89.6191 356.737 89.6917 354.787C89.9739 348.755 91.8412 345.687 91.8412 345.687L85.5317 343.989Z" fill="#F7A491"/>
<path d="M114.214 347.027C114.214 347.027 114.803 354.52 114.326 356.954C114.069 358.256 112.645 360.942 113.288 362.168C113.932 363.393 114.687 363.702 114.687 363.702L131.617 363.976C132.541 363.99 131.931 363.395 131.188 362.846C129.97 361.946 128.988 361.351 125.1 359.459C124.847 359.337 123.924 358.746 123.59 358.543C122.687 357.941 121.872 357.217 121.169 356.392C119.953 355.032 119.847 348.433 119.847 348.433L114.214 347.027Z" fill="#F7A491"/>
<path d="M127.447 247.441C127.447 247.441 129.578 259.604 128.179 267.579C126.781 275.555 120.059 349.474 120.059 349.474L112.589 349.889C112.589 349.889 111.025 319.011 111.305 314.716C111.585 310.421 113.795 303.238 113.795 303.238L113.05 278.307L122.474 245.554L127.447 247.441Z" fill="#13375B"/>
<path d="M105.502 244.882C105.502 244.882 99.6238 253.776 98.2233 261.138C96.8228 268.5 99.2607 291.123 96.5634 300.77C95.1111 305.992 89.5817 314.054 88.7414 320.802C87.9011 327.55 84.6084 345.227 84.6084 345.227L92.0777 346.714L109.421 302.57L123.025 262.671L126.511 242.122L105.502 244.882Z" fill="#355389"/>
<path d="M110.261 194.282C110.261 194.282 102.477 193.782 99.3976 197.156C96.3186 200.53 106.23 227.226 106.79 231.514C107.35 235.803 103.935 247.225 103.935 247.225C103.935 247.225 122.22 250.925 127.447 247.449C127.447 247.449 128.007 216.571 127.447 213.504C126.887 210.437 122.22 197.951 121.1 196.735C119.98 195.52 110.261 194.282 110.261 194.282Z" fill="#FAE0B2"/>
<path d="M112.853 183.818C112.853 183.818 112.813 184.048 112.741 184.44C112.394 186.321 111.056 192.563 110.153 194.278C109.062 196.352 113.888 202.963 118.536 202.158C119.917 201.918 117.365 196.082 117.498 195.464C117.735 194.282 118.052 192.667 118.378 191.012C118.561 190.079 118.747 189.131 118.922 188.241C119.419 185.713 119.824 183.646 119.824 183.646L112.853 183.818Z" fill="#F7A491"/>
<path d="M112.741 184.44C112.813 184.048 112.853 183.818 112.853 183.818L119.814 183.644C119.814 183.644 119.399 185.718 118.911 188.239C118.739 189.125 118.554 190.066 118.37 190.995C117.295 190.836 116.172 190.311 115.05 189.32C113.899 188.305 113.031 187.008 112.533 185.556C112.614 185.114 112.687 184.743 112.741 184.44Z" fill="#F47458"/>
<path d="M117.538 167.912C117.538 167.912 114.249 167.531 112.201 170.206C110.153 172.881 107.927 181.149 113.031 185.643C118.135 190.137 123.198 185.05 123.938 179.656C124.679 174.262 124.982 167.717 117.538 167.912Z" fill="#F7A491"/>
<path d="M125.453 179.575C124.843 180.767 123.82 181.427 123.171 181.05C122.521 180.672 122.484 179.39 123.094 178.208C123.704 177.026 124.727 176.357 125.376 176.734C126.026 177.111 126.063 178.385 125.453 179.575Z" fill="#F7A491"/>
<path d="M117.905 167.029C117.905 167.029 113.523 174.893 110.386 175.255C107.249 175.618 106.838 179.797 106.838 179.797C106.838 179.797 107.96 170.169 111.064 168.313C114.168 166.456 117.905 167.029 117.905 167.029Z" fill="#0E2E35"/>
<path d="M88.9178 359.121C84.8512 359.866 82.1456 357.475 80.7368 355.685C79.6994 357.713 79.1973 360.739 79.9588 362.404C80.6289 363.872 82.5855 363.831 84.1271 363.889C85.7558 363.949 87.0173 363.039 87.8244 361.608C88.2706 360.817 88.6369 359.984 88.9178 359.121Z" fill="#B75742"/>
<path d="M123.598 358.541C119.121 359.696 115.811 358.91 113.959 358.161C113.481 359.519 112.849 361.226 113.185 362.211C113.6 363.416 114.181 363.688 114.697 363.702C118.789 363.81 129.679 363.957 132.798 363.997C132.896 363.997 132.992 363.97 133.075 363.918C133.158 363.866 133.224 363.791 133.266 363.702C133.307 363.614 133.323 363.515 133.31 363.418C133.297 363.321 133.257 363.23 133.194 363.155C132.42 362.228 123.932 358.746 123.598 358.541Z" fill="#B75742"/>
<path d="M111.207 177.232C111.463 178.627 110.95 179.909 110.062 180.091C109.174 180.274 108.249 179.291 107.987 177.895C107.726 176.5 108.245 175.218 109.133 175.036C110.021 174.853 110.954 175.826 111.207 177.232Z" fill="#F7A491"/>
<path d="M96.0572 181.217C96.0572 181.217 107.054 193.096 108.678 197.882C110.303 202.668 107.087 209.516 102.63 209.817C98.1735 210.117 88.2601 188.735 88.2601 188.735L96.0572 181.217Z" fill="#F7CC7F"/>
<path d="M425.878 148.786H289.221C284.891 148.786 281.381 152.295 281.381 156.623V354.679C281.381 359.007 284.891 362.516 289.221 362.516H425.878C430.209 362.516 433.719 359.007 433.719 354.679V156.623C433.719 152.295 430.209 148.786 425.878 148.786Z" fill="#F7CC7F"/>
<path d="M421.438 166.365H295.097V198.971H421.438V166.365Z" fill="#3CB4C5"/>
<g style="mix-blend-mode:multiply" opacity="0.5">
<path d="M298.448 171.058H421.438V166.365H295.097V198.969H298.448V171.058Z" fill="#3CB4C5"/>
</g>
<path d="M330.745 208.27H295.701C295.368 208.27 295.097 208.54 295.097 208.873V219.412C295.097 219.745 295.368 220.015 295.701 220.015H330.745C331.078 220.015 331.348 219.745 331.348 219.412V208.873C331.348 208.54 331.078 208.27 330.745 208.27Z" fill="#F47458"/>
<path d="M375.788 208.27H340.745C340.412 208.27 340.141 208.54 340.141 208.873V219.412C340.141 219.745 340.412 220.015 340.745 220.015H375.788C376.122 220.015 376.392 219.745 376.392 219.412V208.873C376.392 208.54 376.122 208.27 375.788 208.27Z" fill="#F47458"/>
<path d="M420.835 208.27H385.791C385.458 208.27 385.187 208.54 385.187 208.873V219.412C385.187 219.745 385.458 220.015 385.791 220.015H420.835C421.168 220.015 421.438 219.745 421.438 219.412V208.873C421.438 208.54 421.168 208.27 420.835 208.27Z" fill="#F47458"/>
<path d="M321.802 229.318H296.448C295.702 229.318 295.097 229.923 295.097 230.668V254.301C295.097 255.047 295.702 255.651 296.448 255.651H321.802C322.548 255.651 323.153 255.047 323.153 254.301V230.668C323.153 229.923 322.548 229.318 321.802 229.318Z" fill="#F47458"/>
<path d="M354.563 229.318H329.209C328.463 229.318 327.859 229.923 327.859 230.668V254.301C327.859 255.047 328.463 255.651 329.209 255.651H354.563C355.309 255.651 355.914 255.047 355.914 254.301V230.668C355.914 229.923 355.309 229.318 354.563 229.318Z" fill="#FAE0B2"/>
<path d="M387.326 229.318H361.972C361.226 229.318 360.622 229.923 360.622 230.668V254.301C360.622 255.047 361.226 255.651 361.972 255.651H387.326C388.072 255.651 388.677 255.047 388.677 254.301V230.668C388.677 229.923 388.072 229.318 387.326 229.318Z" fill="#FAE0B2"/>
<path d="M321.802 261.781H296.448C295.702 261.781 295.097 262.385 295.097 263.131V286.763C295.097 287.509 295.702 288.114 296.448 288.114H321.802C322.548 288.114 323.153 287.509 323.153 286.763V263.131C323.153 262.385 322.548 261.781 321.802 261.781Z" fill="#F47458"/>
<path d="M354.563 261.781H329.209C328.463 261.781 327.859 262.385 327.859 263.131V286.763C327.859 287.509 328.463 288.114 329.209 288.114H354.563C355.309 288.114 355.914 287.509 355.914 286.763V263.131C355.914 262.385 355.309 261.781 354.563 261.781Z" fill="#FAE0B2"/>
<path d="M387.326 261.781H361.972C361.226 261.781 360.622 262.385 360.622 263.131V286.763C360.622 287.509 361.226 288.114 361.972 288.114H387.326C388.072 288.114 388.677 287.509 388.677 286.763V263.131C388.677 262.385 388.072 261.781 387.326 261.781Z" fill="#FAE0B2"/>
<path d="M415.718 229.316H399.099C398.347 229.318 397.603 229.467 396.909 229.756C396.215 230.045 395.585 230.467 395.054 230.999C394.524 231.532 394.103 232.163 393.817 232.858C393.53 233.553 393.384 234.297 393.385 235.048V282.382C393.384 283.133 393.53 283.877 393.817 284.572C394.103 285.267 394.524 285.898 395.054 286.431C395.585 286.963 396.215 287.385 396.909 287.674C397.603 287.963 398.347 288.112 399.099 288.114H415.718C416.47 288.112 417.214 287.963 417.908 287.674C418.602 287.385 419.232 286.963 419.763 286.431C420.293 285.898 420.714 285.267 421 284.572C421.287 283.877 421.433 283.133 421.432 282.382V235.048C421.433 234.297 421.287 233.553 421 232.858C420.714 232.163 420.293 231.532 419.763 230.999C419.232 230.467 418.602 230.045 417.908 229.756C417.214 229.467 416.47 229.318 415.718 229.316Z" fill="#FAE0B2"/>
<path d="M321.802 294.246H296.448C295.702 294.246 295.097 294.85 295.097 295.596V319.228C295.097 319.974 295.702 320.578 296.448 320.578H321.802C322.548 320.578 323.153 319.974 323.153 319.228V295.596C323.153 294.85 322.548 294.246 321.802 294.246Z" fill="#F47458"/>
<path d="M354.563 294.246H329.209C328.463 294.246 327.859 294.85 327.859 295.596V319.228C327.859 319.974 328.463 320.578 329.209 320.578H354.563C355.309 320.578 355.914 319.974 355.914 319.228V295.596C355.914 294.85 355.309 294.246 354.563 294.246Z" fill="#FAE0B2"/>
<path d="M387.326 294.246H361.972C361.226 294.246 360.622 294.85 360.622 295.596V319.228C360.622 319.974 361.226 320.578 361.972 320.578H387.326C388.072 320.578 388.677 319.974 388.677 319.228V295.596C388.677 294.85 388.072 294.246 387.326 294.246Z" fill="#FAE0B2"/>
<path d="M420.088 294.246H394.734C393.988 294.246 393.383 294.85 393.383 295.596V319.228C393.383 319.974 393.988 320.578 394.734 320.578H420.088C420.834 320.578 421.438 319.974 421.438 319.228V295.596C421.438 294.85 420.834 294.246 420.088 294.246Z" fill="#FAE0B2"/>
<path d="M321.802 326.708H296.448C295.702 326.708 295.097 327.313 295.097 328.058V351.691C295.097 352.437 295.702 353.041 296.448 353.041H321.802C322.548 353.041 323.153 352.437 323.153 351.691V328.058C323.153 327.313 322.548 326.708 321.802 326.708Z" fill="#F47458"/>
<path d="M354.563 326.708H329.209C328.463 326.708 327.859 327.313 327.859 328.058V351.691C327.859 352.437 328.463 353.041 329.209 353.041H354.563C355.309 353.041 355.914 352.437 355.914 351.691V328.058C355.914 327.313 355.309 326.708 354.563 326.708Z" fill="#FAE0B2"/>
<path d="M387.326 326.708H361.972C361.226 326.708 360.622 327.313 360.622 328.058V351.691C360.622 352.437 361.226 353.041 361.972 353.041H387.326C388.072 353.041 388.677 352.437 388.677 351.691V328.058C388.677 327.313 388.072 326.708 387.326 326.708Z" fill="#FAE0B2"/>
<path d="M420.088 326.708H394.734C393.988 326.708 393.383 327.313 393.383 328.058V351.691C393.383 352.437 393.988 353.041 394.734 353.041H420.088C420.834 353.041 421.438 352.437 421.438 351.691V328.058C421.438 327.313 420.834 326.708 420.088 326.708Z" fill="#E87B50"/>
<path d="M313.928 300.492V301.823L307.451 315.41H305.376L311.831 302.213V302.167H304.552V300.492H313.928Z" fill="white"/>
<path d="M336.975 311.624C336.975 309.741 338.098 308.41 339.928 307.63L339.905 307.561C338.257 306.782 337.548 305.488 337.548 304.21C337.548 301.846 339.54 300.239 342.148 300.239C345.032 300.239 346.474 302.053 346.474 303.912C346.474 305.174 345.851 306.529 344.025 307.402V307.47C345.878 308.204 347.023 309.513 347.023 311.325C347.023 313.92 344.803 315.664 341.965 315.664C338.853 315.664 336.975 313.803 336.975 311.624ZM344.986 311.533C344.986 309.718 343.727 308.837 341.714 308.273C339.973 308.779 339.035 309.932 339.035 311.348C338.967 312.864 340.11 314.195 342.011 314.195C343.818 314.195 344.986 313.069 344.986 311.533ZM339.448 304.067C339.448 305.558 340.569 306.361 342.285 306.821C343.567 306.383 344.55 305.467 344.55 304.113C344.55 302.918 343.841 301.68 342.034 301.68C340.363 301.686 339.448 302.788 339.448 304.073V304.067Z" fill="white"/>
<path d="M347.042 339.86C347.042 344.933 345.175 347.74 341.87 347.74C338.965 347.74 336.994 345.009 336.948 340.068C336.948 335.066 339.1 332.31 342.121 332.31C345.26 332.303 347.042 335.105 347.042 339.86ZM338.963 340.088C338.963 343.968 340.154 346.171 341.984 346.171C344.044 346.171 345.027 343.761 345.027 339.949C345.027 336.277 344.09 333.867 342.007 333.867C340.249 333.865 338.967 336.022 338.967 340.084L338.963 340.088Z" fill="white"/>
<path d="M371.558 313.988C372.1 314.017 372.644 313.995 373.182 313.919C374.346 313.773 375.435 313.265 376.295 312.468C377.278 311.574 377.988 310.265 378.262 308.499H378.193C377.772 309.017 377.237 309.432 376.629 309.71C376.022 309.989 375.359 310.124 374.691 310.106C372.014 310.106 370.298 308.084 370.298 305.543C370.298 302.721 372.334 300.241 375.378 300.241C378.421 300.241 380.299 302.729 380.299 306.531C380.299 309.813 379.199 312.107 377.737 313.532C376.553 314.653 375.033 315.355 373.411 315.529C372.798 315.628 372.176 315.666 371.556 315.643L371.558 313.988ZM372.29 305.405C372.29 307.271 373.413 308.571 375.151 308.571C376.502 308.571 377.554 307.905 378.081 307.01C378.212 306.788 378.275 306.533 378.264 306.276C378.264 303.729 377.326 301.778 375.22 301.778C373.504 301.778 372.29 303.291 372.29 305.405Z" fill="white"/>
<path d="M310.494 282.311V278.249H303.583V276.917L310.223 267.393H312.393V276.666H314.468V278.249H312.393V282.311H310.494ZM310.494 276.666V271.689C310.494 270.91 310.517 270.128 310.563 269.348H310.494C310.038 270.221 309.665 270.862 309.26 271.55L305.621 276.61V276.658L310.494 276.666Z" fill="white"/>
<path d="M346.038 269.091H340.363L339.791 272.923C340.192 272.862 340.598 272.832 341.004 272.832C342.125 272.809 343.231 273.087 344.208 273.637C345.374 274.302 346.337 275.586 346.337 277.469C346.337 280.385 344.025 282.564 340.797 282.564C339.172 282.564 337.799 282.106 337.089 281.646L337.593 280.109C338.568 280.647 339.661 280.932 340.774 280.938C342.675 280.938 344.301 279.694 344.301 277.703C344.278 275.775 342.996 274.398 340.021 274.398C339.332 274.405 338.644 274.458 337.963 274.557L338.923 267.397H346.04L346.038 269.091Z" fill="white"/>
<path d="M378.882 268.815C378.377 268.793 377.87 268.824 377.372 268.909C374.214 269.435 372.544 271.754 372.199 274.209H372.268C372.69 273.662 373.236 273.221 373.86 272.922C374.484 272.623 375.169 272.474 375.861 272.488C378.492 272.488 380.347 274.394 380.347 277.309C380.347 280.041 378.492 282.564 375.403 282.564C372.222 282.564 370.139 280.076 370.139 276.206C370.139 273.268 371.193 270.951 372.658 269.481C373.956 268.239 375.63 267.464 377.417 267.279C377.902 267.202 378.391 267.163 378.882 267.162V268.815ZM378.309 277.423C378.309 275.287 377.098 274.004 375.243 274.004C374.641 274.02 374.054 274.199 373.546 274.522C373.038 274.845 372.628 275.301 372.359 275.839C372.203 276.112 372.124 276.421 372.131 276.735C372.176 279.19 373.297 281.003 375.403 281.003C377.143 281.003 378.309 279.557 378.309 277.423Z" fill="white"/>
<path d="M308.642 237.555H308.596L306.009 238.955L305.621 237.416L308.87 235.672H310.586V250.591H308.642V237.555Z" fill="white"/>
<path d="M337.16 250.591V249.347L338.739 247.808C342.538 244.183 344.254 242.255 344.276 240.005C344.276 238.491 343.544 237.101 341.324 237.101C339.973 237.101 338.853 237.79 338.166 238.362L337.525 236.94C338.706 235.953 340.198 235.417 341.737 235.426C344.94 235.426 346.301 237.628 346.301 239.762C346.301 242.518 344.31 244.739 341.175 247.773L339.984 248.874V248.92H346.667V250.595L337.16 250.591Z" fill="white"/>
<path d="M370.871 248.275C371.87 248.867 373.006 249.191 374.168 249.214C376.753 249.214 377.554 247.555 377.531 246.323C377.509 244.235 375.633 243.339 373.687 243.339H372.562V241.823H373.683C375.147 241.823 377.002 241.066 377.002 239.299C377.002 238.107 376.245 237.049 374.392 237.049C373.325 237.08 372.291 237.424 371.417 238.037L370.89 236.568C371.668 235.994 373.172 235.422 374.78 235.422C377.71 235.422 379.038 237.166 379.038 238.978C379.038 240.517 378.123 241.823 376.293 242.489V242.537C378.123 242.904 379.612 244.281 379.612 246.369C379.612 248.756 377.757 250.844 374.189 250.844C372.529 250.844 371.054 250.317 370.321 249.834L370.871 248.275Z" fill="white"/>
<path d="M309.125 347.309C310.116 347.309 310.92 346.503 310.92 345.509C310.92 344.515 310.116 343.709 309.125 343.709C308.134 343.709 307.33 344.515 307.33 345.509C307.33 346.503 308.134 347.309 309.125 347.309Z" fill="white"/>
<path d="M418.069 259.666H408.624V250.195H406.197V259.666H396.754V262.1H406.197V271.571H408.624V262.1H418.069V259.666Z" fill="white"/>
<path d="M380.934 345.48L375.934 340.468L380.934 335.453L379.648 334.164L374.649 339.178L369.649 334.164L368.363 335.453L373.363 340.468L368.363 345.48L369.649 346.77L374.649 341.756L379.648 346.77L380.934 345.48Z" fill="white"/>
<path d="M414.735 306.893H398.921V309.322H414.735V306.893Z" fill="white"/>
<path d="M415.318 334.964H399.504V337.392H415.318V334.964Z" fill="white"/>
<path d="M415.318 341.08H399.504V343.508H415.318V341.08Z" fill="white"/>
<path d="M315.796 30.7683L315.754 30.7538C315.366 30.6128 314.972 30.4883 314.571 30.3743C314.435 30.3349 314.3 30.2934 314.156 30.2561C314.013 30.2188 313.866 30.1856 313.719 30.1503L313.275 30.0466C313.134 30.0155 312.993 29.9886 312.86 29.9616C312.727 29.9347 312.542 29.9035 312.38 29.8766L311.965 29.8123C311.791 29.7874 311.617 29.7667 311.443 29.7459L311.061 29.7045C310.853 29.6837 310.66 29.6713 310.459 29.6588L310.142 29.636C309.833 29.6215 309.519 29.6132 309.208 29.6132H165.704C165.371 29.6132 165.039 29.6215 164.708 29.6381C164.054 29.6734 163.403 29.7426 162.756 29.8455C162.436 29.8932 162.119 29.9512 161.804 30.0155C157.766 30.8553 154.102 32.9585 151.341 36.0202C148.581 39.0818 146.867 42.9428 146.45 47.0432C146.386 47.6964 146.35 48.3579 146.35 49.0278V343.151C146.348 347.135 147.571 351.023 149.855 354.287C152.139 357.552 155.372 360.035 159.117 361.4L159.216 361.434C159.586 361.566 159.961 361.684 160.339 361.794C160.476 361.834 160.613 361.875 160.754 361.91C160.895 361.946 161.044 361.983 161.192 362.018L161.636 362.122L162.061 362.207L162.54 362.292L162.955 362.356C163.129 362.381 163.304 362.402 163.478 362.423L163.86 362.464C164.067 362.483 164.26 362.497 164.461 362.51C164.567 362.51 164.669 362.526 164.779 362.531C165.088 362.545 165.401 362.555 165.713 362.555H309.214C314.013 362.555 318.641 360.772 322.198 357.553C325.756 354.334 327.99 349.909 328.466 345.136C328.531 344.485 328.566 343.823 328.566 343.153V49.0195C328.569 45.035 327.345 41.1463 325.06 37.8811C322.776 34.6159 319.541 32.1326 315.796 30.7683Z" fill="#F47458"/>
<path d="M319.18 56.064H155.737V336.109H319.18V56.064Z" fill="#F3FCFF"/>
<path d="M272.38 43.7542H202.802C202.702 43.7542 202.621 43.8349 202.621 43.9346V47.0825C202.621 47.1822 202.702 47.2629 202.802 47.2629H272.38C272.48 47.2629 272.561 47.1822 272.561 47.0825V43.9346C272.561 43.8349 272.48 43.7542 272.38 43.7542Z" fill="white"/>
<path opacity="0.3" d="M237.364 357.651C241.797 357.651 245.391 354.047 245.391 349.601C245.391 345.155 241.797 341.55 237.364 341.55C232.93 341.55 229.336 345.155 229.336 349.601C229.336 354.047 232.93 357.651 237.364 357.651Z" fill="#DAEEF7"/>
<path opacity="0.2" d="M319.18 324.359H155.737V336.109H319.18V324.359Z" fill="#3CB4C5"/>
<path opacity="0.2" d="M319.18 56.064H155.737V70.9245H319.18V56.064Z" fill="#3CB4C5"/>
<g style="mix-blend-mode:multiply" opacity="0.3">
<path d="M188.689 62.9116H46.7433C45.5753 62.9135 44.4191 63.1453 43.3408 63.5939C42.2625 64.0424 41.2832 64.6989 40.4587 65.5258C39.6343 66.3527 38.9809 67.3339 38.5359 68.4132C38.0909 69.4925 37.863 70.6489 37.8652 71.8163V130.564C37.8633 131.731 38.0914 132.887 38.5365 133.966C38.9817 135.045 39.6351 136.026 40.4595 136.853C41.2839 137.68 42.2631 138.336 43.3413 138.784C44.4195 139.233 45.5755 139.465 46.7433 139.466H158.496C163.019 145.796 171.221 157.131 171.943 157.131C172.622 157.131 171.321 146.426 170.397 139.466H188.689C189.857 139.465 191.013 139.233 192.091 138.784C193.169 138.336 194.148 137.68 194.973 136.853C195.797 136.026 196.451 135.045 196.896 133.966C197.341 132.887 197.569 131.731 197.567 130.564V71.8163C197.569 70.6489 197.341 69.4925 196.896 68.4132C196.451 67.3339 195.798 66.3527 194.973 65.5258C194.149 64.6989 193.17 64.0424 192.091 63.5939C191.013 63.1453 189.857 62.9135 188.689 62.9116Z" fill="#DAEEF7"/>
</g>
<path d="M182.828 47.6672H40.8819C39.713 47.6691 38.5559 47.9014 37.4769 48.3508C36.3979 48.8001 35.4182 49.4578 34.5937 50.286C33.7693 51.1143 33.1164 52.0969 32.6723 53.1777C32.2283 54.2584 32.0018 55.4161 32.0059 56.5844V115.324C32.0037 116.491 32.2316 117.647 32.6765 118.726C33.1214 119.805 33.7746 120.787 34.5988 121.613C35.423 122.44 36.4021 123.097 37.4801 123.545C38.5582 123.994 39.7141 124.226 40.8819 124.228H152.633C157.156 130.558 165.356 141.893 166.08 141.893C166.756 141.893 165.457 131.186 164.532 124.228H182.823C183.991 124.226 185.148 123.995 186.226 123.546C187.304 123.098 188.284 122.441 189.108 121.614C189.932 120.787 190.586 119.806 191.031 118.727C191.476 117.647 191.704 116.491 191.702 115.324V56.5844C191.706 55.4163 191.479 54.2588 191.035 53.1781C190.591 52.0975 189.939 51.115 189.114 50.2868C188.29 49.4585 187.311 48.8009 186.232 48.3514C185.153 47.9019 183.996 47.6694 182.828 47.6672Z" fill="#9BC1F9"/>
<path d="M116.469 66.7211H46.8823C46.7723 66.7211 46.6831 66.8103 46.6831 66.9202V70.4C46.6831 70.5099 46.7723 70.5991 46.8823 70.5991H116.469C116.579 70.5991 116.668 70.5099 116.668 70.4V66.9202C116.668 66.8103 116.579 66.7211 116.469 66.7211Z" fill="white"/>
<path d="M76.6329 76.9571H46.8823C46.7723 76.9571 46.6831 77.0462 46.6831 77.1562V80.6359C46.6831 80.7459 46.7723 80.835 46.8823 80.835H76.6329C76.7429 80.835 76.8321 80.7459 76.8321 80.6359V77.1562C76.8321 77.0462 76.7429 76.9571 76.6329 76.9571Z" fill="white"/>
<path d="M173.86 76.9571H80.4298C80.3198 76.9571 80.2306 77.0462 80.2306 77.1562V80.6359C80.2306 80.7459 80.3198 80.835 80.4298 80.835H173.86C173.97 80.835 174.059 80.7459 174.059 80.6359V77.1562C174.059 77.0462 173.97 76.9571 173.86 76.9571Z" fill="white"/>
<path d="M174.145 66.7211H124.021C123.911 66.7211 123.822 66.8103 123.822 66.9202V70.4C123.822 70.5099 123.911 70.5991 124.021 70.5991H174.145C174.255 70.5991 174.344 70.5099 174.344 70.4V66.9202C174.344 66.8103 174.255 66.7211 174.145 66.7211Z" fill="white"/>
<path d="M174.145 97.0187H46.8823C46.7723 97.0187 46.6831 97.1078 46.6831 97.2178V100.698C46.6831 100.807 46.7723 100.897 46.8823 100.897H174.145C174.255 100.897 174.344 100.807 174.344 100.698V97.2178C174.344 97.1078 174.255 97.0187 174.145 97.0187Z" fill="white"/>
<path d="M112.434 87.191H46.8823C46.7723 87.191 46.6831 87.2801 46.6831 87.3901V90.8698C46.6831 90.9798 46.7723 91.0689 46.8823 91.0689H112.434C112.544 91.0689 112.633 90.9798 112.633 90.8698V87.3901C112.633 87.2801 112.544 87.191 112.434 87.191Z" fill="white"/>
<path d="M174.145 87.191H116.662C116.552 87.191 116.463 87.2801 116.463 87.3901V90.8698C116.463 90.9798 116.552 91.0689 116.662 91.0689H174.145C174.255 91.0689 174.344 90.9798 174.344 90.8698V87.3901C174.344 87.2801 174.255 87.191 174.145 87.191Z" fill="white"/>
<path d="M299.28 30.9258L342.554 30.9258C342.653 30.9258 342.733 30.846 342.733 30.7475V27.6389C342.733 27.5404 342.653 27.4606 342.554 27.4606L299.28 27.4606C299.182 27.4606 299.102 27.5404 299.102 27.6389V30.7475C299.102 30.846 299.182 30.9258 299.28 30.9258Z" fill="white"/>
<g style="mix-blend-mode:multiply" opacity="0.3">
<path d="M286.288 17.7076H413.1C414.143 17.7093 415.176 17.9163 416.139 18.317C417.103 18.7177 417.978 19.3042 418.714 20.0429C419.451 20.7816 420.035 21.6581 420.432 22.6223C420.83 23.5866 421.034 24.6197 421.032 25.6626V78.1515C421.033 79.1943 420.829 80.2272 420.432 81.1912C420.034 82.1552 419.45 83.0314 418.714 83.7699C417.977 84.5084 417.102 85.0947 416.139 85.4952C415.176 85.8958 414.143 86.1028 413.1 86.1044H313.262C309.22 91.7596 301.894 101.886 301.247 101.886C300.643 101.886 301.807 92.3215 302.629 86.1044H286.288C284.182 86.0984 282.166 85.2574 280.68 83.7663C279.195 82.2751 278.363 80.2557 278.366 78.1515V25.6626C278.362 23.5581 279.194 21.5381 280.68 20.0465C282.165 18.5549 284.182 17.7137 286.288 17.7076Z" fill="#DAEEF7"/>
</g>
<path d="M291.525 4.09344H418.337C420.444 4.09729 422.463 4.93749 423.951 6.42928C425.438 7.92106 426.272 9.94227 426.269 12.0484V64.5332C426.27 65.5759 426.066 66.6088 425.669 67.5728C425.271 68.5368 424.687 69.4131 423.95 70.1516C423.214 70.8901 422.339 71.4763 421.376 71.8769C420.413 72.2774 419.38 72.4844 418.337 72.4861H318.497C314.457 78.1412 307.131 88.2674 306.484 88.2674C305.878 88.2674 307.044 78.7032 307.866 72.4861H291.525C290.481 72.4844 289.448 72.2774 288.485 71.8769C287.522 71.4763 286.647 70.8901 285.911 70.1516C285.174 69.4131 284.59 68.5368 284.192 67.5728C283.795 66.6088 283.591 65.5759 283.593 64.5332V12.0484C283.591 11.0055 283.794 9.97238 284.192 9.00813C284.59 8.04389 285.173 7.16738 285.91 6.42867C286.646 5.68996 287.521 5.10351 288.485 4.70283C289.448 4.30215 290.481 4.09508 291.525 4.09344Z" fill="#9BC1F9"/>
<path d="M371.4 24.5781L409.813 24.5781C409.912 24.5781 409.992 24.4983 409.992 24.3998V21.2912C409.992 21.1927 409.912 21.1129 409.813 21.1129L371.4 21.1129C371.302 21.1129 371.222 21.1927 371.222 21.2912V24.3998C371.222 24.4983 371.302 24.5781 371.4 24.5781Z" fill="white"/>
<path d="M383.982 35.8946H409.813C409.912 35.8946 409.992 35.8147 409.992 35.7162V32.6077C409.992 32.5092 409.912 32.4293 409.813 32.4293H383.982C383.883 32.4293 383.803 32.5092 383.803 32.6077V35.7162C383.803 35.8147 383.883 35.8946 383.982 35.8946Z" fill="white"/>
<path d="M348.594 35.8946L380.463 35.8946C380.562 35.8946 380.641 35.8147 380.641 35.7162V32.6077C380.641 32.5092 380.562 32.4293 380.463 32.4293L348.594 32.4293C348.495 32.4293 348.416 32.5092 348.416 32.6077V35.7162C348.416 35.8147 348.495 35.8946 348.594 35.8946Z" fill="white"/>
<path d="M299.471 35.8946L344.154 35.8946C344.252 35.8946 344.332 35.8147 344.332 35.7162V32.6077C344.332 32.5092 344.252 32.4293 344.154 32.4293L299.471 32.4293C299.372 32.4293 299.293 32.5092 299.293 32.6077V35.7162C299.293 35.8147 299.372 35.8946 299.471 35.8946Z" fill="white"/>
<path d="M299.282 24.5781L363.95 24.5781C364.048 24.5781 364.128 24.4983 364.128 24.3998V21.2912C364.128 21.1927 364.048 21.1129 363.95 21.1129L299.282 21.1129C299.184 21.1129 299.104 21.1927 299.104 21.2912V24.3998C299.104 24.4983 299.184 24.5781 299.282 24.5781Z" fill="white"/>
<path d="M299.28 58.0611L409.811 58.0611C409.91 58.0611 409.99 57.9813 409.99 57.8828V54.7742C409.99 54.6757 409.91 54.5958 409.811 54.5958L299.28 54.5958C299.182 54.5958 299.102 54.6757 299.102 54.7742V57.8828C299.102 57.9813 299.182 58.0611 299.28 58.0611Z" fill="white"/>
<path d="M352.885 47.1094L409.813 47.1094C409.912 47.1094 409.992 47.0296 409.992 46.9311V43.8225C409.992 43.724 409.912 43.6442 409.813 43.6442L352.885 43.6442C352.786 43.6442 352.706 43.724 352.706 43.8225V46.9311C352.706 47.0296 352.786 47.1094 352.885 47.1094Z" fill="white"/>
<path d="M299.28 47.1094L349.685 47.1094C349.784 47.1094 349.864 47.0296 349.864 46.9311V43.8225C349.864 43.724 349.784 43.6442 349.685 43.6442L299.28 43.6442C299.182 43.6442 299.102 43.724 299.102 43.8225V46.9311C299.102 47.0296 299.182 47.1094 299.28 47.1094Z" fill="white"/>
<path d="M196.619 162.23C196.619 162.23 164.941 166.792 169.781 197.357C174.294 225.849 201.461 220.063 208.437 218.634C215.412 217.205 196.619 162.23 196.619 162.23Z" fill="#F7CC7F"/>
<path d="M208.445 218.634C211.694 217.971 209.356 205.696 205.928 192.766C194.266 195.047 181.274 197.602 170.242 199.778C175.871 225.513 201.671 220.022 208.445 218.634Z" fill="#E8BA70"/>
<path d="M214.85 223.918C214.85 223.918 221.809 248.75 219.977 268.042C218.267 286.034 220.832 289.032 227.523 288.462C234.214 287.892 250.448 283.9 250.732 277.471C251.016 271.042 248.035 238.059 236.779 220.353C225.523 202.648 214.85 223.918 214.85 223.918Z" fill="#96D9C9"/>
<path d="M225.666 213.568C221.205 216.565 214.852 223.925 214.852 223.925C214.852 223.925 221.811 248.756 219.979 268.048C218.269 286.04 220.834 289.039 227.525 288.468C229.98 288.261 233.716 287.587 237.484 286.507C240.148 242.279 228.735 218.566 225.666 213.568Z" fill="#50BFA5"/>
<path d="M292.591 102.043C292.591 102.043 240.053 140.277 223.073 151.843L213.143 166.622L220.197 209.676L237.175 218.029L320.149 234.411L318.227 225.094L303.17 183.326L295.481 135.775L293.238 106.535L292.591 102.043Z" fill="#96D9C9"/>
<path d="M303.162 183.331L301.147 170.863L217.182 191.302L220.191 209.676L237.169 218.029L320.142 234.414L318.219 225.096L303.162 183.331Z" fill="#50BFA5"/>
<path d="M223.073 151.843C223.073 151.843 216.132 188.364 237.169 218.029C237.169 218.029 238.343 220.777 235.781 222.492L220.12 226.49C220.12 226.49 212.858 229.059 206.736 218.634C200.613 208.21 189.791 184.793 196.2 158.947C196.2 158.947 197.764 151.951 206.308 150.665L217.699 148.523C217.699 148.523 222.761 147.737 223.073 151.843Z" fill="#3C8F7C"/>
<path d="M292.591 102.043C292.591 102.043 306.26 91.9754 314.169 92.191C322.078 92.4067 329.973 102.9 335.1 111.467C340.226 120.033 353.679 153.664 354.962 176.375C356.244 199.087 356.03 231.423 344.924 235.27C333.817 239.117 320.148 234.414 320.148 234.414C320.148 234.414 302.208 218.993 291.744 171.013C281.281 123.032 292.591 102.043 292.591 102.043Z" fill="#256653"/>
<path d="M337.05 236.556C337.05 236.556 349.826 219.966 343.316 175.139C333.064 104.575 307.214 93.9038 307.214 93.9038C307.214 93.9038 288.095 108.472 306.376 176.655C321.424 232.854 337.05 236.556 337.05 236.556Z" fill="#3C8F7C"/>
<path d="M300.251 147.969C301.496 156.276 303.453 165.785 306.368 176.664C307.82 182.107 309.291 187.055 310.745 191.557C318.69 188.799 331.541 181.885 326.053 164.348C320.968 148.098 307.731 147.104 300.251 147.969Z" fill="#F7CC7F"/>
<path d="M306.376 176.655C307.828 182.099 309.299 187.047 310.754 191.549C318.588 188.828 331.193 182.066 326.278 165.059L304.681 170.05C305.202 172.2 305.767 174.402 306.376 176.655Z" fill="#E8BA70"/>
<g style="mix-blend-mode:multiply" opacity="0.3">
<path d="M237.169 218.029C230.577 208.732 226.733 198.762 224.56 189.452L196.803 194.707C199.008 203.098 202.35 211.148 206.736 218.634C212.858 229.059 220.12 226.49 220.12 226.49L235.781 222.492C238.343 220.777 237.169 218.029 237.169 218.029Z" fill="#3C8F7C"/>
</g>
<path d="M504.922 71.3599L504.796 85.1152L513.51 76.9093L540.997 58.2455L518.562 63.1375C518.562 63.1375 507.358 67.3825 506.794 68.0274C506.229 68.6723 504.922 71.3599 504.922 71.3599Z" fill="#DD513A"/>
<path d="M493.868 64.4315L541.003 58.2517L504.92 71.362L493.868 64.4315Z" fill="#F47458"/>
<path d="M521.761 83.0995L508.176 74.6697L541.003 58.2517L521.761 83.0995Z" fill="#F47458"/>
<path d="M445.149 128.129C445.158 127.024 445.227 125.92 445.357 124.822C445.477 123.808 445.651 122.779 445.875 121.767L446.969 122.01C446.761 122.986 446.585 123.978 446.469 124.954C446.34 126.012 446.271 127.076 446.261 128.142C446.261 128.451 446.261 128.764 446.261 129.069L445.143 129.094C445.149 128.774 445.147 128.449 445.149 128.129ZM448.222 114.803C449.235 112.579 450.439 110.446 451.82 108.429L452.743 109.063C451.396 111.032 450.222 113.114 449.232 115.284L448.222 114.803ZM483.178 108.221C483.108 108.19 483.039 108.155 482.971 108.12L483.473 107.118C483.533 107.147 483.593 107.178 483.645 107.201C483.683 107.212 483.722 107.22 483.761 107.224C484.384 107.298 485.973 107.099 486.799 106.456C487.526 105.869 488.063 105.081 488.345 104.19L489.403 104.557C489.048 105.652 488.382 106.62 487.486 107.342C486.34 108.236 484.409 108.431 483.629 108.337C483.473 108.324 483.321 108.284 483.178 108.221ZM456.384 102.703C458.033 100.908 459.792 99.218 461.652 97.6429L462.374 98.4994C460.552 100.044 458.828 101.703 457.214 103.464L456.384 102.703ZM477.678 100.084C477.544 98.9818 477.544 97.8677 477.678 96.7657C477.754 96.1377 477.866 95.5145 478.014 94.8994L479.103 95.1627C478.965 95.734 478.861 96.3129 478.79 96.8964C478.666 97.9087 478.666 98.9325 478.79 99.9448C478.879 100.643 479.037 101.331 479.263 101.998L478.205 102.361C477.951 101.622 477.772 100.859 477.672 100.084H477.678ZM482.319 93.7505L482.17 93.6986L482.518 92.6327L482.68 92.6867C485.11 93.5162 487.228 95.1316 488.49 97.1203L487.548 97.7238C486.411 95.9466 484.504 94.4991 482.319 93.7505ZM468.051 93.9828C469.238 93.4519 471.404 92.5311 472.578 92.3238C473.489 92.1661 474.329 92.0521 475.145 91.9774L475.246 93.0952C474.462 93.1678 473.651 93.2777 472.767 93.4291C471.997 93.5618 470.443 94.1362 468.505 95.001L468.051 93.9828ZM481.043 88.143C482.404 86.0797 484.063 84.2286 485.965 82.6497L486.678 83.5144C484.861 85.0224 483.276 86.7912 481.977 88.7631L481.043 88.143Z" fill="#6DB1B5"/>
<path d="M492.693 79.8727C493.803 79.4122 494.948 79.0453 496.119 78.7757L495.87 77.6808C494.638 77.9639 493.433 78.3496 492.266 78.8338L492.693 79.8727Z" fill="#6DB1B5"/>
<path d="M376.187 215.381L375.614 215.895C375.479 216.022 375.3 216.091 375.114 216.086C374.929 216.081 374.753 216.004 374.624 215.87L364.458 204.657C364.398 204.588 364.352 204.507 364.324 204.42C364.295 204.333 364.284 204.241 364.291 204.15C364.298 204.058 364.323 203.969 364.365 203.888C364.407 203.806 364.465 203.733 364.535 203.674L365.107 203.158C365.242 203.031 365.422 202.962 365.607 202.967C365.793 202.972 365.969 203.049 366.097 203.183L376.264 214.398C376.323 214.467 376.369 214.548 376.397 214.635C376.426 214.722 376.437 214.814 376.43 214.905C376.423 214.997 376.398 215.086 376.356 215.167C376.314 215.249 376.257 215.321 376.187 215.381Z" fill="#13375B"/>
<path d="M410.67 206.271C409.309 205.161 398.798 209.796 398.931 211.399C399.064 213.002 391.594 228.611 391.594 228.611L378.687 218.29C378.573 217.917 377.349 213.904 377.289 213.185C377.226 212.432 375.046 211.111 374.033 211.318C373.021 211.526 374.898 212.786 375.023 213.021C375.359 213.657 374.06 213.896 374.06 213.896C374.06 213.896 370.326 211.843 370.251 210.636C370.176 209.429 369.402 206.903 368.591 207.428C368.176 207.701 368.176 209.502 368.309 210.348C368.07 209.381 367.73 208.29 367.4 208.181C366.796 207.973 366.498 208.753 366.608 209.132C366.718 209.512 367.691 213.614 367.987 214.076C368.284 214.539 374.299 219.393 375.166 220.451C375.166 220.451 391.862 239.592 393.051 240.092C394.088 240.531 397.813 233.935 401.325 229.557C404.838 225.179 414.917 209.734 410.67 206.271Z" fill="#F7A491"/>
<path d="M444.35 347.013C444.35 347.013 446.633 349.259 446.697 350.082C446.761 350.905 446.904 359.733 445.963 360.556C445.021 361.38 442.276 361.964 443.159 362.891C443.828 363.592 448.969 363.443 452.38 363.254C453.374 363.2 454.621 355.239 455.015 354.068C455.587 352.369 456.98 348.541 456.467 347.357C456.214 346.78 455 345.594 453.293 344.487C451.494 343.321 449.766 340.729 449.766 340.729L444.35 347.013Z" fill="#F48C7F"/>
<path d="M420.592 352.241C420.592 352.241 422.644 358.047 422.646 358.072C422.799 358.995 423.401 361.272 423.401 362.11C423.401 365.255 409.249 359.437 412.419 358.043C412.708 357.916 413.608 356.909 413.701 355.836C413.847 354.177 412.51 352.116 412.51 352.116L420.592 352.241Z" fill="#F7A491"/>
<path d="M398.389 243.93C398.389 243.93 397.352 254.357 397.352 254.506C397.352 271.374 394.018 304.322 394.655 307.493C396.2 315.228 412.849 354.685 412.849 354.685L421.845 353.607L410.116 306.371L414.432 287.357L420.538 249.768L398.389 243.93Z" fill="#355389"/>
<path d="M428.582 253.152L430.289 263.036L434.91 303.708L452.5 343.462C452.5 343.462 450.027 349.246 446.375 350.059L418.378 309.245L400.987 257.02L401.597 245.407L428.582 253.152Z" fill="#13375B"/>
<path d="M394.802 219.101L407.278 220.378C407.278 220.378 407.851 210.122 407.851 205.227C407.851 199.292 407.346 191.644 406.631 191.81C404.624 192.271 401.923 193.382 400.315 195.599C394.748 203.27 394.802 219.101 394.802 219.101Z" fill="#86B1F2"/>
<path d="M400.931 204.18C400.67 205.991 395.873 255.195 395.873 255.195C418.59 266.198 431.126 257.155 431.126 257.155C431.126 257.155 430.383 222.599 431.273 217.896C431.862 214.785 432.599 194.108 430.588 193.529C428.007 192.787 425.048 191.997 421.824 191.663C419.071 191.377 408.38 191.211 406.471 191.856C406.467 191.858 402.024 196.563 400.931 204.18Z" fill="#9BC1F9"/>
<path d="M453.179 344.422C453.179 344.422 447.892 359.353 445.821 360.073C445.272 360.266 442.634 360.751 442.137 361.921C441.987 362.273 442.137 363.449 442.137 363.449H453.158C453.158 363.449 454.552 356.871 455.104 353.98C455.104 353.98 458.021 346.917 457.697 346.276C457.374 345.635 453.179 344.422 453.179 344.422Z" fill="#184655"/>
<path d="M424.206 363.147L422.584 358.014C422.584 358.014 419.181 359.466 417.48 359.217C415.778 358.968 412.454 358.014 412.454 358.014C405.661 360.256 400.097 361.332 401.109 363.147H424.206Z" fill="#184655"/>
<path d="M393.051 240.094C392.93 240.018 392.816 239.933 392.709 239.839C393.111 235.017 393.038 230.347 391.53 228.767L392.24 227.259C393.989 228.615 394.819 232.22 394.493 238.068C394.442 238.476 394.365 238.88 394.263 239.279C393.756 239.836 393.296 240.197 393.051 240.094Z" fill="#F7A491"/>
<path d="M453.625 255.719C453.637 255.614 453.637 255.508 453.625 255.402C453.291 251.995 450.469 223.379 449.994 222.164C449.564 221.065 436.912 202.915 436.912 202.915L430.688 211.418L442.857 227.697C443.13 228.734 447.521 248.047 447.521 248.047C447.521 248.047 448.421 251.572 448.824 253.677C448.639 254.185 448.459 254.666 448.299 255.06C447.932 255.806 447.493 256.513 446.987 257.173C446.444 257.903 445.535 259.5 445.433 259.929C445.305 260.425 445.072 261.458 444.942 262.082C444.811 262.706 444.63 263.43 444.599 263.768C444.515 264.088 444.383 264.395 444.207 264.676C444.153 264.771 444.13 264.881 444.139 264.99C444.148 265.099 444.19 265.202 444.26 265.287C444.329 265.372 444.422 265.433 444.527 265.464C444.632 265.495 444.744 265.494 444.848 265.46C445.29 265.313 445.633 264.74 445.846 264.382C446.444 263.372 446.763 261.53 446.913 261.628C447.062 261.725 447.587 264.852 447.67 265.205C447.753 265.557 448.382 269.191 448.737 269.854C449.091 270.518 449.566 270.406 449.687 269.991C449.795 269.632 449.295 264.552 449.295 264.552C449.295 264.552 449.232 263.905 449.515 264.106C449.797 264.307 450.261 268.921 450.459 269.595C450.656 270.269 451.104 270.632 451.484 270.086C451.948 269.427 451.152 264.535 451.152 264.535C451.152 264.535 451.062 263.913 451.324 263.977C451.585 264.041 451.913 267.965 452.118 268.305C452.324 268.645 452.836 268.768 453.081 268.199C453.37 267.532 452.623 263.17 452.623 263.17C452.623 263.17 452.658 262.824 452.83 262.94C453.002 263.056 453.513 266.385 453.851 266.694C453.884 266.729 453.924 266.757 453.969 266.776C454.014 266.796 454.062 266.805 454.11 266.805C454.159 266.805 454.207 266.796 454.251 266.776C454.296 266.757 454.336 266.729 454.37 266.694C454.992 266.279 454.04 263.1 454.05 261.526C454.06 259.952 453.33 258.179 453.548 256.304C453.563 256.19 453.602 255.902 453.625 255.719Z" fill="#F8A492"/>
<path d="M446.803 214.41L435.995 221.689C435.995 221.689 429.904 212.598 426.634 209.361C422.536 205.306 428.125 192.885 430.765 193.588C436.674 195.159 446.803 214.41 446.803 214.41Z" fill="#9BC1F9"/>
<path d="M421.03 181.027L422.646 191.713C422.646 191.713 416.743 204.437 413.218 203.326C410.261 202.399 412.081 191.14 412.081 191.14C412.081 191.14 413.691 185.095 413.207 182.07C412.724 179.044 421.03 181.027 421.03 181.027Z" fill="#F7A491"/>
<path d="M413.208 182.078C412.726 179.052 421.03 181.027 421.03 181.027L421.164 181.914C420.954 182.46 420.65 182.964 420.264 183.403C418.409 185.404 415.509 186.607 413.002 186.698C413.253 185.066 413.407 183.318 413.208 182.078Z" fill="#F47458"/>
<path d="M422.393 165.909C422.627 165.824 424.275 178.08 421.148 181.462C418.021 184.844 411.936 185.939 409.751 183.283C407.336 180.344 407.469 167.172 412.315 163.702C417.162 160.233 422.393 165.909 422.393 165.909Z" fill="#F7A491"/>
<path d="M414.166 157.137C416.888 157.724 419.362 159.139 421.247 161.187C422.953 161.394 425.271 162.334 427.663 166.307C430.605 171.193 428.432 176.607 425.007 179.264C421.581 181.92 421.629 184.987 421.629 184.987L421.088 183.401C420.681 182.201 420.535 180.929 420.658 179.668C420.723 178.895 420.91 178.137 421.212 177.422C422.042 175.647 419.442 174.469 418.722 172.993C418.162 171.856 418.135 169.26 417.251 167.379L416.199 165.944C416.199 165.944 413.768 164.049 411.39 164.584C409.012 165.119 409.346 156.15 414.166 157.137Z" fill="#184655"/>
<path d="M418.876 175.168C418.851 176.664 419.527 177.887 420.388 177.904C421.25 177.92 421.967 176.717 421.992 175.222C422.017 173.727 421.341 172.508 420.49 172.487C419.639 172.466 418.901 173.673 418.876 175.168Z" fill="#F7A491"/>
<path d="M413.801 178.623L409.091 178.379C409.091 178.379 409.106 180.179 411.166 180.347C413.697 180.552 413.801 178.623 413.801 178.623Z" fill="white"/>
<path d="M202.252 362.694L204.555 362.257L194.602 309.312L192.299 309.749L202.252 362.694Z" fill="#0E2E35"/>
<path d="M176.58 362.935H173.811L184.135 309.312L186.44 309.749L176.58 362.935Z" fill="#0E2E35"/>
<path d="M151.1 362.935L153.349 362.962L143.45 309.552L141.147 309.99L151.1 362.935Z" fill="#0E2E35"/>
<path d="M161.15 237.091C152.021 238.07 140.224 239.104 128.368 259.28C115.417 281.322 122.235 314.249 132.458 323.399C142.68 332.548 176.066 343.846 204.132 326.924C204.132 326.924 221.079 316.676 212.381 299.665C198.999 273.487 200.889 268.027 194.905 257.775C188.921 247.522 180.512 235.011 161.15 237.091Z" fill="#FAE0B2"/>
<path d="M128.374 259.272C136.466 245.506 144.529 240.656 151.737 238.65C148.948 241.553 146.122 245.266 143.294 250.081C130.341 272.123 137.159 305.05 147.382 314.199C156.449 322.314 183.73 332.113 209.364 322.432C207.829 324.155 206.072 325.665 204.138 326.924C176.072 343.838 142.686 332.54 132.464 323.399C122.241 314.257 115.423 281.314 128.374 259.272Z" fill="#F7CC7F"/>
<path d="M190.434 270.594L192.778 277.649L185.635 274.831L190.434 270.594Z" fill="#F79C8D"/>
<path d="M183.068 249.604C183.545 249.623 184.851 250.06 186.759 253.664C189.197 258.268 192.76 272.177 192.76 272.177L182.126 276.136L180.759 273.232L178.51 250.883C178.51 250.883 182.938 249.598 183.068 249.604Z" fill="#DD513A"/>
<path d="M169.024 247.599C172.063 247.599 179.587 248.488 183.079 249.604C183.079 249.604 185.645 271.642 180.769 288.383C179.678 292.133 181.672 303.924 181.672 303.924L150.164 303.509C150.164 303.509 153.899 275.005 152.49 270.402C151.081 265.798 151.05 249.751 151.05 249.751L158.129 248.532C161.731 247.942 165.374 247.63 169.024 247.599Z" fill="#F47458"/>
<path d="M165.341 344.837C165.341 344.837 166.038 352.877 167.32 355.104C168.603 357.332 167.252 361.118 167.186 361.637C167.119 362.155 164.488 362.9 160.304 362.454C156.119 362.008 156.189 361.044 156.527 359.484C156.866 357.925 159.09 355.921 159.225 354.437C159.359 352.952 157.942 347.608 157.942 347.608L165.341 344.837Z" fill="#F7A491"/>
<path d="M178.107 297.29C178.107 297.29 199.858 296.083 204.715 299.024C209.572 301.964 203.837 308.001 203.837 308.001C203.837 308.001 186.129 315.695 156.484 317.405C149.465 317.82 148.859 299.111 150.172 297.564C151.486 296.017 178.107 297.29 178.107 297.29Z" fill="#256653"/>
<path d="M159.783 363.072C155.475 362.613 156.009 360.498 156.355 358.893C156.563 357.887 157.808 356.703 158.546 355.575C158.93 355.88 159.557 356.421 161.426 356.975C163.368 357.547 166.03 356.413 167.727 355.701C168.168 357.518 168.363 359.386 168.304 361.255C168.233 361.798 164.09 363.53 159.783 363.072Z" fill="#184655"/>
<path d="M162.16 312.843C163.028 319.415 167.331 352.135 167.331 352.135L157.347 353.379C157.347 353.379 145.07 310.674 145.701 304.142C146.332 297.609 150.925 297.06 150.925 297.06C150.925 297.06 159.859 295.444 162.16 312.843Z" fill="#3C8F7C"/>
<path d="M150.697 252.202C153.643 251.097 155.083 277.629 155.482 288.549C160.698 289.051 169.798 288.549 172.055 288.383C173.122 288.302 175.582 287.404 176.634 287.265C177.686 287.126 178.709 287.058 179.238 287.143C179.433 287.176 184.871 289.399 185.336 289.887C185.915 290.49 187.473 292.016 187.203 292.676C186.934 293.335 184.205 290.839 184.205 290.839L182.867 290.088C184.527 291.714 187.707 293.854 187.249 294.633C186.79 295.413 183.94 293.221 181.898 291.73C183.649 293.31 185.824 296.141 185.324 296.581C184.873 296.977 182.398 293.702 179.755 292.759C178.773 292.41 177.796 293.381 177.026 293.495C176.46 293.58 175.574 293.762 175.028 293.605L172.165 292.794C171.19 292.883 171.165 293.46 170.182 293.669C169.038 293.912 167.161 294.169 165.706 294.524C157.32 296.572 154.523 297.522 151.957 297.52C144.184 297.526 143.734 254.813 150.697 252.202Z" fill="#F7A491"/>
<path d="M145.106 277.11C144.554 265.925 144.635 252.138 150.915 249.784C153.39 248.857 157.762 254.438 156.969 277.338C153.614 277.614 148.691 277.836 145.106 277.11Z" fill="#DD513A"/>
<path d="M180.203 272.305H179.564L169.951 295.917L170.613 295.818L180.203 272.305Z" fill="#F79C8D"/>
<path d="M194.544 351.71C194.544 351.71 193.675 354.501 195.233 356.347C196.791 358.192 203.275 360.005 204.125 361.004C204.976 362.004 204.912 362.854 204.912 362.854L186.72 362.354L186.927 356.863L187.757 352.923L194.544 351.71Z" fill="#F7A491"/>
<path d="M196.355 357.267C196.355 357.267 191.681 359.156 189.423 358.039C187.166 356.921 187.232 356.61 186.579 357.027C185.925 357.443 185.693 362.591 185.693 362.591L206.148 363.192C207.572 363.159 208.292 362.112 207.134 361.214C206.341 360.591 205.426 360.177 204.906 359.888C203.304 358.972 196.355 357.267 196.355 357.267Z" fill="#184655"/>
<path d="M193.845 302.443C195.252 299.486 198.449 295.635 204.076 297.954C209.441 300.166 210.883 305.602 209.19 311.168C207.497 316.734 196.349 349.458 195.961 353.958L187.062 354.016C187.062 354.016 188.679 328.106 189.075 321.843C189.457 315.817 191.411 307.561 193.845 302.443Z" fill="#3C8F7C"/>
<path d="M208.294 272.303H178.543C178.158 272.304 177.781 272.419 177.461 272.635C177.142 272.85 176.894 273.155 176.748 273.512L167.588 295.909H151.181C150.96 295.909 150.749 295.996 150.594 296.152C150.438 296.308 150.351 296.519 150.351 296.739C150.351 296.959 150.438 297.17 150.594 297.325C150.749 297.481 150.96 297.568 151.181 297.568H197.864C198.493 297.567 199.108 297.385 199.636 297.042C200.163 296.699 200.581 296.212 200.837 295.637L210.059 275.032C210.189 274.738 210.244 274.415 210.218 274.094C210.193 273.773 210.088 273.463 209.913 273.192C209.737 272.922 209.498 272.699 209.215 272.544C208.933 272.389 208.616 272.306 208.294 272.303Z" fill="black"/>
<path d="M192.276 285.351C192.069 286.357 191.199 287.031 190.32 286.855C189.44 286.679 188.892 285.721 189.093 284.713C189.295 283.705 190.17 283.033 191.048 283.209C191.926 283.386 192.469 284.346 192.276 285.351Z" fill="white"/>
<path d="M176.078 220.681C175.18 220.386 174.301 220.035 173.447 219.63C172.483 219.165 171.234 218.62 170.445 218.5C168.785 218.242 165.932 218.415 164.358 220.121C162.395 222.249 158.909 220.505 159.611 231.649C160.407 244.262 167.422 242.877 167.594 242.663C167.767 242.449 173.852 234.594 173.852 234.594C173.852 234.594 175.981 239.248 175.981 239.078C175.981 238.907 186.853 224.308 176.078 220.681Z" fill="#0E2E35"/>
<path d="M170.756 243.596L171.362 248.102C171.362 248.102 172.719 254.595 170.972 255.848C169.225 257.101 163.549 247.918 163.549 247.918L164.148 236.498L170.756 243.596Z" fill="#F7A491"/>
<path d="M163.955 240.197C165.397 244.094 168.831 246.487 171.269 247.416L170.756 243.596L164.148 236.498L163.955 240.197Z" fill="#F47458"/>
<path d="M170.397 224.07C174.097 223.472 177.414 226.446 177.321 230.148C177.275 232.083 177.106 234.014 176.815 235.927C176.01 241.13 172.458 245.711 170.111 245.303C167.765 244.894 161.856 240.407 162.895 233.001C163.538 228.431 166.515 224.696 170.397 224.07Z" fill="#F7A491"/>
<path d="M164.524 233.891C164.327 235.036 163.409 235.832 162.476 235.668C161.542 235.504 160.949 234.447 161.146 233.304C161.343 232.162 162.262 231.363 163.194 231.527C164.125 231.691 164.723 232.742 164.524 233.891Z" fill="#F7A491"/>
<path d="M163.194 231.521C163.194 231.521 166.034 232.226 167.086 230.401C168.138 228.576 171.908 224.636 176.697 226.27C181.485 227.904 172.483 222.299 172.099 222.299C171.715 222.299 167.119 222.268 167.119 222.268C167.119 222.268 163.575 225.171 163.447 225.501C163.318 225.83 162.297 229.312 162.297 229.312L163.194 231.521Z" fill="#0E2E35"/>
<path d="M168.389 239.136L173.555 240.123C173.555 240.123 173.061 242.068 170.777 241.699C167.986 241.251 168.389 239.136 168.389 239.136Z" fill="white"/>
<path d="M115.004 181.616L120.171 182.603C120.171 182.603 119.679 184.548 117.394 184.179C114.608 183.729 115.004 181.616 115.004 181.616Z" fill="white"/>
<path d="M533.359 340.067C528.854 340.49 524.391 341.288 520.018 342.452C512.033 344.551 504.352 347.649 496.793 350.942C493.077 352.562 489.336 354.159 485.691 355.934C483.987 356.763 482.272 357.593 480.711 358.659C478.595 360.092 475.292 362.964 474.902 363.428L476.636 363.48C477.823 362.514 482.176 358.839 488.22 355.93C502.536 349.034 517.417 341.963 533.389 340.208C533.398 340.207 533.407 340.203 533.414 340.198C533.422 340.192 533.429 340.185 533.434 340.178C533.439 340.17 533.443 340.161 533.445 340.152C533.447 340.142 533.446 340.133 533.445 340.123C533.443 340.114 533.439 340.105 533.434 340.098C533.428 340.09 533.422 340.083 533.414 340.078C533.406 340.073 533.397 340.069 533.388 340.067C533.378 340.065 533.369 340.066 533.359 340.067Z" fill="#3C8F7C"/>
</svg>
