<svg width="25" height="25" viewBox="0 0 25 25" fill="none" xmlns="http://www.w3.org/2000/svg">
<path fill-rule="evenodd" clip-rule="evenodd" d="M12.5 23.75C18.7132 23.75 23.75 18.7132 23.75 12.5C23.75 6.28681 18.7132 1.25 12.5 1.25C6.28681 1.25 1.25 6.28681 1.25 12.5C1.25 18.7132 6.28681 23.75 12.5 23.75ZM12.5 25C19.4036 25 25 19.4036 25 12.5C25 5.59644 19.4036 0 12.5 0C5.59644 0 0 5.59644 0 12.5C0 19.4036 5.59644 25 12.5 25Z" fill="#333333" fill-opacity="0.3"/>
<path fill-rule="evenodd" clip-rule="evenodd" d="M5.625 12.5C5.625 12.1548 5.90481 11.875 6.25 11.875H18.75C19.0952 11.875 19.375 12.1548 19.375 12.5C19.375 12.8452 19.0952 13.125 18.75 13.125H6.25C5.90481 13.125 5.625 12.8452 5.625 12.5Z" fill="#333333"/>
<path fill-rule="evenodd" clip-rule="evenodd" d="M12.5 5.625C12.8452 5.625 13.125 5.90481 13.125 6.25V18.75C13.125 19.0952 12.8452 19.375 12.5 19.375C12.1548 19.375 11.875 19.0952 11.875 18.75V6.25C11.875 5.90481 12.1548 5.625 12.5 5.625Z" fill="#333333"/>
</svg>
