<svg width="16" height="11" viewBox="0 0 16 11" fill="none" xmlns="http://www.w3.org/2000/svg">
<path fill-rule="evenodd" clip-rule="evenodd" d="M10.293 0.799134C10.4805 0.611663 10.7348 0.506348 11 0.506348C11.2652 0.506348 11.5195 0.611663 11.707 0.799134L15.707 4.79913C15.8945 4.98666 15.9998 5.24097 15.9998 5.50613C15.9998 5.7713 15.8945 6.02561 15.707 6.21313L11.707 10.2131C11.5184 10.3953 11.2658 10.4961 11.0036 10.4938C10.7414 10.4915 10.4906 10.3864 10.3052 10.201C10.1198 10.0155 10.0146 9.76473 10.0123 9.50253C10.01 9.24034 10.1108 8.98774 10.293 8.79913L12.586 6.50613H1C0.734784 6.50613 0.48043 6.40078 0.292893 6.21324C0.105357 6.0257 0 5.77135 0 5.50613C0 5.24092 0.105357 4.98656 0.292893 4.79903C0.48043 4.61149 0.734784 4.50613 1 4.50613H12.586L10.293 2.21313C10.1055 2.02561 10.0002 1.7713 10.0002 1.50613C10.0002 1.24097 10.1055 0.986662 10.293 0.799134Z" fill="white"/>
</svg>
