<svg width="40" height="40" viewBox="0 0 40 40" fill="none" xmlns="http://www.w3.org/2000/svg">
<path fill-rule="evenodd" clip-rule="evenodd" d="M10.6673 3.63721C12.2755 3.50881 13.8022 2.87628 15.0299 1.82968C16.4166 0.648639 18.1785 0 20 0C21.8215 0 23.5834 0.648639 24.9701 1.82968C26.1978 2.87628 27.7245 3.50881 29.3327 3.63721C31.1488 3.78236 32.8538 4.56964 34.1421 5.85792C35.4304 7.14619 36.2176 8.85123 36.3628 10.6673C36.4903 12.2749 37.1228 13.8024 38.1703 15.0299C39.3514 16.4166 40 18.1785 40 20C40 21.8215 39.3514 23.5834 38.1703 24.9701C37.1237 26.1978 36.4912 27.7245 36.3628 29.3327C36.2176 31.1488 35.4304 32.8538 34.1421 34.1421C32.8538 35.4304 31.1488 36.2176 29.3327 36.3628C27.7245 36.4912 26.1978 37.1237 24.9701 38.1703C23.5834 39.3514 21.8215 40 20 40C18.1785 40 16.4166 39.3514 15.0299 38.1703C13.8022 37.1237 12.2755 36.4912 10.6673 36.3628C8.85123 36.2176 7.14619 35.4304 5.85792 34.1421C4.56964 32.8538 3.78236 31.1488 3.63721 29.3327C3.50881 27.7245 2.87628 26.1978 1.82968 24.9701C0.648639 23.5834 0 21.8215 0 20C0 18.1785 0.648639 16.4166 1.82968 15.0299C2.87628 13.8022 3.50881 12.2755 3.63721 10.6673C3.78236 8.85123 4.56964 7.14619 5.85792 5.85792C7.14619 4.56964 8.85123 3.78236 10.6673 3.63721ZM29.2677 16.7674C29.7231 16.2959 29.9751 15.6644 29.9694 15.0089C29.9637 14.3534 29.7007 13.7264 29.2372 13.2628C28.7737 12.7993 28.1466 12.5364 27.4911 12.5307C26.8356 12.525 26.2041 12.777 25.7326 13.2324L17.5 21.465L14.2674 18.2325C13.7959 17.7771 13.1644 17.5251 12.5089 17.5308C11.8534 17.5365 11.2263 17.7994 10.7628 18.2629C10.2993 18.7265 10.0363 19.3535 10.0306 20.009C10.0249 20.6645 10.2769 21.296 10.7323 21.7675L15.7324 26.7676C16.2013 27.2363 16.837 27.4996 17.5 27.4996C18.1629 27.4996 18.7987 27.2363 19.2675 26.7676L29.2677 16.7674Z" fill="#FF8B00"/>
</svg>
